<svg width="204" height="40" viewBox="0 0 204 40" fill="none" xmlns="http://www.w3.org/2000/svg">
<rect width="204" height="40" fill="#F8F8F8"/>
<g clip-path="url(#clip0_1_624)">
<path d="M12.6667 14H3.33333C2.6 14 2 14.6 2 15.3333V20C2 20.7333 2.6 21.3333 3.33333 21.3333H12.6667C13.4 21.3333 14 20.7333 14 20V15.3333C14 14.6 13.4 14 12.6667 14ZM12.6667 18H10C10 19.08 9.08 20 8 20C6.92 20 6 19.08 6 18H3.33333V15.3333H12.6667V18ZM10 22.6667H14V24.6667C14 25.4 13.4 26 12.6667 26H3.33333C2.6 26 2 25.4 2 24.6667V22.6667H6C6 23.7733 6.89333 24.6667 8 24.6667C9.10667 24.6667 10 23.7733 10 22.6667Z" fill="#3C3C46"/>
</g>
<path d="M25.232 25.5V14.3H26.464V25.5H25.232ZM28.7111 25.5V17.484H29.8951V18.428C30.5245 17.692 31.3671 17.324 32.4231 17.324C33.0311 17.324 33.5645 17.4573 34.0231 17.724C34.4925 17.98 34.8551 18.3427 35.1111 18.812C35.3778 19.2707 35.5111 19.8093 35.5111 20.428V25.5H34.3431V20.668C34.3431 19.9533 34.1405 19.3933 33.7351 18.988C33.3405 18.572 32.7965 18.364 32.1031 18.364C31.6231 18.364 31.1965 18.4707 30.8231 18.684C30.4498 18.8973 30.1405 19.2013 29.8951 19.596V25.5H28.7111ZM40.0524 25.66C39.391 25.66 38.767 25.5533 38.1804 25.34C37.6044 25.116 37.103 24.8067 36.6764 24.412L37.3964 23.644C37.7697 23.9853 38.1804 24.252 38.6284 24.444C39.0764 24.6253 39.535 24.716 40.0044 24.716C40.6444 24.716 41.167 24.5827 41.5724 24.316C41.9777 24.0493 42.1804 23.7027 42.1804 23.276C42.1804 22.924 42.0577 22.652 41.8124 22.46C41.5777 22.2573 41.2044 22.1187 40.6924 22.044L39.3004 21.852C38.5004 21.7347 37.903 21.4947 37.5084 21.132C37.1244 20.7693 36.9324 20.2787 36.9324 19.66C36.9324 19.212 37.0604 18.812 37.3164 18.46C37.5724 18.108 37.9244 17.8307 38.3724 17.628C38.831 17.4253 39.3537 17.324 39.9404 17.324C40.527 17.324 41.0764 17.4093 41.5884 17.58C42.1004 17.7507 42.6017 18.0173 43.0924 18.38L42.4684 19.18C42.0204 18.8707 41.583 18.6467 41.1564 18.508C40.7404 18.3587 40.3137 18.284 39.8764 18.284C39.3217 18.284 38.8737 18.4067 38.5324 18.652C38.191 18.8973 38.0204 19.2173 38.0204 19.612C38.0204 19.9747 38.1377 20.252 38.3724 20.444C38.607 20.6253 38.9857 20.7533 39.5084 20.828L40.9004 21.02C41.7004 21.1267 42.2977 21.3613 42.6924 21.724C43.0977 22.0867 43.3004 22.5827 43.3004 23.212C43.3004 23.6707 43.1564 24.0867 42.8684 24.46C42.5804 24.8333 42.191 25.1267 41.7004 25.34C41.2204 25.5533 40.671 25.66 40.0524 25.66ZM44.633 25.5V17.484H45.817V25.5H44.633ZM45.225 15.948C45.0117 15.948 44.825 15.868 44.665 15.708C44.505 15.548 44.425 15.3613 44.425 15.148C44.425 14.924 44.505 14.7373 44.665 14.588C44.825 14.428 45.0117 14.348 45.225 14.348C45.449 14.348 45.6357 14.428 45.785 14.588C45.945 14.7373 46.025 14.924 46.025 15.148C46.025 15.3613 45.945 15.548 45.785 15.708C45.6357 15.868 45.449 15.948 45.225 15.948ZM51.7401 28.924C51.1855 28.924 50.6361 28.8493 50.0921 28.7C49.5481 28.5613 49.0521 28.3587 48.6041 28.092L49.1161 27.164C49.5961 27.42 50.0388 27.6067 50.4441 27.724C50.8601 27.8413 51.2761 27.9 51.6921 27.9C52.4495 27.9 53.0255 27.7187 53.4201 27.356C53.8148 26.9933 54.0121 26.46 54.0121 25.756V24.636C53.2761 25.2547 52.4281 25.564 51.4681 25.564C50.7321 25.564 50.0601 25.3827 49.4521 25.02C48.8441 24.6573 48.3588 24.1667 47.9961 23.548C47.6441 22.9187 47.4681 22.22 47.4681 21.452C47.4681 20.684 47.6441 19.9907 47.9961 19.372C48.3588 18.7427 48.8441 18.2467 49.4521 17.884C50.0601 17.5213 50.7428 17.34 51.5001 17.34C51.9588 17.34 52.4015 17.42 52.8281 17.58C53.2655 17.74 53.6655 17.9747 54.0281 18.284V17.484H55.1961V25.74C55.1961 26.764 54.8975 27.548 54.3001 28.092C53.7028 28.6467 52.8495 28.924 51.7401 28.924ZM51.5641 24.524C52.0761 24.524 52.5455 24.428 52.9721 24.236C53.3988 24.044 53.7455 23.772 54.0121 23.42V19.484C53.7455 19.1427 53.3935 18.876 52.9561 18.684C52.5295 18.492 52.0655 18.396 51.5641 18.396C51.0095 18.396 50.5081 18.5293 50.0601 18.796C49.6228 19.0627 49.2761 19.4307 49.0201 19.9C48.7641 20.3587 48.6361 20.876 48.6361 21.452C48.6361 22.028 48.7641 22.5507 49.0201 23.02C49.2868 23.4787 49.6388 23.8467 50.0761 24.124C50.5241 24.3907 51.0201 24.524 51.5641 24.524ZM57.2111 25.5V14.3L58.3951 14.028V18.428C59.0245 17.692 59.8671 17.324 60.9231 17.324C61.5311 17.324 62.0645 17.4573 62.5231 17.724C62.9925 17.98 63.3551 18.3427 63.6111 18.812C63.8778 19.2707 64.0111 19.8093 64.0111 20.428V25.5H62.8431V20.668C62.8431 19.9533 62.6405 19.3933 62.2351 18.988C61.8405 18.572 61.2965 18.364 60.6031 18.364C60.1231 18.364 59.6965 18.4707 59.3231 18.684C58.9498 18.8973 58.6405 19.2013 58.3951 19.596V25.5H57.2111ZM68.91 25.66C68.2167 25.66 67.6833 25.4947 67.31 25.164C66.9367 24.8333 66.75 24.3533 66.75 23.724V18.492H65.022V17.484H66.75V15.452L67.918 15.148V17.484H70.334V18.492H67.918V23.42C67.918 23.8467 68.014 24.156 68.206 24.348C68.398 24.5293 68.7127 24.62 69.15 24.62C69.374 24.62 69.5713 24.604 69.742 24.572C69.9233 24.54 70.1153 24.4867 70.318 24.412V25.452C70.1153 25.5267 69.886 25.58 69.63 25.612C69.3847 25.644 69.1447 25.66 68.91 25.66Z" fill="#282828"/>
<defs>
<clipPath id="clip0_1_624">
<rect width="16" height="16" fill="white" transform="translate(0 12)"/>
</clipPath>
</defs>
</svg>
